<svg width="193" height="50" viewBox="0 0 193 50" fill="none" xmlns="http://www.w3.org/2000/svg">
<path d="M72.6687 36.7743C72.6187 35.8737 72.5927 35.0121 72.5927 34.1961V23.6276C72.6026 22.3597 72.3957 21.0995 71.9807 19.9014C71.5891 18.7767 70.96 17.7494 70.1361 16.8893C69.2506 15.9943 68.1783 15.3058 66.9959 14.8732C65.5484 14.35 64.0165 14.0991 62.4777 14.1332C60.5881 14.1185 58.7116 14.4472 56.9395 15.1033C55.4178 15.6544 54.0127 16.4854 52.7967 17.5533C52.7372 17.6081 52.7009 17.6836 52.6952 17.7643C52.6896 17.845 52.715 17.9248 52.7663 17.9874L54.9104 20.559C54.9382 20.592 54.9725 20.619 55.011 20.6383C55.0496 20.6576 55.0918 20.6688 55.1348 20.6712C55.1779 20.6736 55.221 20.6673 55.2616 20.6524C55.3021 20.6376 55.3391 20.6147 55.3705 20.585C56.1953 19.8386 57.1394 19.2356 58.1635 18.8012C59.3793 18.2728 60.692 18.0037 62.0176 18.0112C63.8232 18.0112 65.2699 18.4453 66.3579 19.3133C67.4459 20.1814 67.9906 21.5175 67.992 23.3216V23.6731C67.992 23.7142 67.9839 23.7548 67.9682 23.7927C67.9525 23.8306 67.9295 23.8651 67.9005 23.8941C67.8715 23.9231 67.837 23.9461 67.7991 23.9619C67.7612 23.9776 67.7206 23.9856 67.6795 23.9856C65.7409 23.9943 63.8196 24.0797 61.9156 24.2417C60.0738 24.3743 58.256 24.7389 56.5055 25.3268C55.0293 25.8099 53.6961 26.6518 52.6253 27.7769C51.6371 28.8518 51.1438 30.3073 51.1452 32.1432C51.1452 33.5393 51.4259 34.7134 51.9872 35.6653C52.5133 36.5795 53.237 37.3647 54.1053 37.9635C54.9673 38.547 55.9273 38.9704 56.9395 39.2135C57.9188 39.4656 58.9252 39.5975 59.9365 39.6063C61.7753 39.6063 63.3667 39.2497 64.7108 38.5364C66.0548 37.8204 67.2024 36.7854 68.0528 35.5221H68.2069C68.2078 36.6065 68.3256 37.6877 68.5584 38.7469C68.5746 38.8172 68.6141 38.8798 68.6704 38.9248C68.7268 38.9697 68.7967 38.9942 68.8687 38.9943H72.558C72.6041 38.9944 72.6498 38.9844 72.6916 38.9649C72.7335 38.9454 72.7705 38.9169 72.8001 38.8815C72.8298 38.8461 72.8512 38.8046 72.863 38.76C72.8748 38.7153 72.8766 38.6686 72.8683 38.6232C72.7637 38.0116 72.697 37.3941 72.6687 36.7743ZM67.9985 28.7339C67.9985 30.7753 67.3945 32.468 66.1865 33.812C64.9784 35.1561 63.251 35.8288 61.0042 35.8303C60.4042 35.8312 59.8058 35.7708 59.2181 35.6501C58.6549 35.5382 58.1175 35.3218 57.6339 35.0121C57.1658 34.7145 56.7729 34.3127 56.4859 33.8381C56.1796 33.294 56.0294 32.676 56.0519 32.052C56.0326 31.5937 56.1141 31.1368 56.2907 30.7134C56.4673 30.2901 56.7347 29.9106 57.074 29.602C57.8186 28.9542 58.6999 28.4832 59.6522 28.2239C60.7851 27.899 61.9488 27.6931 63.1244 27.6098C64.4004 27.507 65.6345 27.4564 66.8266 27.4579H67.6947C67.7782 27.4579 67.8582 27.491 67.9172 27.55C67.9762 27.609 68.0094 27.6891 68.0094 27.7725L67.9985 28.7339ZM38.1873 23.467C33.8709 24.5152 28.0007 25.3051 19.8735 25.3051C11.5575 25.3051 5.87611 24.5152 1.5597 23.467C-1.58917 22.7031 -1.5653 7.47739 17.1847 6.12756C18.2698 4.64536 17.6708 1.7352 16.9937 0.919227C16.9635 0.877126 16.9463 0.827072 16.9442 0.775275C16.9422 0.723478 16.9553 0.672215 16.9822 0.627846C17.009 0.583478 17.0482 0.547956 17.095 0.525684C17.1418 0.503412 17.1941 0.49537 17.2455 0.502557C17.6255 0.55353 17.9969 0.654978 18.3501 0.80421C21.232 2.02817 22.6556 5.39405 22.9703 6.17096C41.3102 7.70091 41.3123 22.7074 38.1873 23.467ZM37.4647 27.4882C37.7424 31.5941 37.4408 44.3784 22.4907 47.2474C21.6856 47.9331 20.3488 49.5086 19.8627 49.5C19.3766 49.4913 18.0397 47.9331 17.2346 47.2474C2.17169 44.6649 1.95901 31.6224 2.26066 27.4817C2.27148 27.3314 2.31426 27.185 2.38617 27.0526C2.45808 26.9201 2.55744 26.8044 2.67762 26.7134C2.7978 26.6224 2.93603 26.5581 3.08306 26.5248C3.23009 26.4915 3.38252 26.49 3.53019 26.5204C5.99764 27.0238 12.2107 27.9917 19.8562 27.9917C27.5016 27.9917 33.7212 27.0238 36.1908 26.5204C36.3392 26.4896 36.4925 26.4911 36.6404 26.5246C36.7882 26.5581 36.9272 26.6229 37.0479 26.7146C37.1686 26.8063 37.2682 26.9228 37.3401 27.0562C37.412 27.1897 37.4545 27.337 37.4647 27.4882ZM169.357 20.1575C169.723 21.4003 169.904 22.6901 169.895 23.9856V38.6775C169.895 38.719 169.887 38.7601 169.871 38.7984C169.855 38.8367 169.832 38.8715 169.802 38.9008C169.773 38.93 169.738 38.9531 169.7 38.9688C169.661 38.9845 169.62 38.9924 169.578 38.9922H165.405C165.322 38.9922 165.242 38.959 165.183 38.9C165.124 38.841 165.091 38.7609 165.091 38.6775V25.5677C165.095 24.6267 165.018 23.6872 164.861 22.7595C164.728 21.9314 164.442 21.1351 164.019 20.4114C163.609 19.7303 163.028 19.1678 162.334 18.7795C161.621 18.37 160.703 18.1653 159.578 18.1653C158.685 18.1436 157.799 18.328 156.989 18.7044C156.178 19.0808 155.466 19.6389 154.906 20.3355C153.697 21.7822 153.093 23.7136 153.094 26.1297V38.6775C153.094 38.7609 153.061 38.841 153.002 38.9C152.943 38.959 152.863 38.9922 152.779 38.9922H148.611C148.527 38.9922 148.447 38.959 148.388 38.9C148.329 38.841 148.296 38.7609 148.296 38.6775V20.0143C148.296 19.3676 148.279 18.5343 148.244 17.5143C148.216 16.6462 148.172 15.8498 148.12 15.1467C148.116 15.1035 148.122 15.06 148.136 15.0191C148.15 14.9781 148.173 14.9405 148.202 14.9087C148.231 14.8768 148.267 14.8514 148.307 14.8341C148.346 14.8168 148.389 14.808 148.433 14.8081H152.352C152.429 14.8077 152.504 14.8361 152.562 14.8879C152.62 14.9396 152.656 15.0109 152.664 15.0881C152.716 15.6284 152.758 16.2252 152.788 16.8741C152.82 17.6394 152.837 18.2782 152.838 18.7903H152.992C153.311 18.1239 153.733 17.5118 154.242 16.9761C154.78 16.4067 155.389 15.9092 156.054 15.4961C156.754 15.0627 157.509 14.7275 158.3 14.5C159.131 14.2613 159.991 14.1415 160.854 14.1441C162.42 14.1441 163.764 14.4074 164.887 14.934C165.965 15.4287 166.924 16.1522 167.695 17.0542C168.458 17.9621 169.024 19.0189 169.357 20.1575ZM192.56 31.8481C192.56 33.276 192.287 34.4841 191.742 35.4722C191.217 36.4379 190.474 37.2679 189.572 37.8962C188.638 38.5413 187.589 39.001 186.482 39.2504C185.311 39.5236 184.112 39.6605 182.91 39.6584C181.061 39.656 179.232 39.2918 177.523 38.5863C175.904 37.9386 174.472 36.8982 173.354 35.559C173.304 35.4956 173.279 35.415 173.287 35.3341C173.294 35.2532 173.332 35.1783 173.394 35.125L176.319 32.638C176.351 32.6101 176.389 32.5891 176.429 32.5763C176.47 32.5635 176.513 32.5592 176.555 32.5637C176.597 32.5682 176.638 32.5813 176.675 32.6023C176.712 32.6233 176.745 32.6517 176.77 32.6857C177.443 33.5608 178.291 34.2859 179.259 34.8146C180.403 35.4626 181.697 35.7972 183.012 35.7847C183.603 35.7872 184.193 35.7276 184.772 35.6067C185.311 35.4963 185.829 35.2976 186.304 35.0186C186.788 34.747 187.186 34.3444 187.453 33.857C187.719 33.3696 187.843 32.817 187.81 32.2625C187.81 31.1384 187.274 30.3044 186.202 29.7604C185.13 29.2164 183.556 28.7064 181.479 28.2304C180.663 28.0264 179.838 27.779 179.003 27.4882C178.188 27.2101 177.421 26.8059 176.731 26.2903C176.049 25.7765 175.484 25.1233 175.073 24.3741C174.622 23.5 174.403 22.5251 174.435 21.5421C174.404 20.3776 174.676 19.2251 175.225 18.1979C175.732 17.2855 176.439 16.4998 177.293 15.8997C178.177 15.2894 179.163 14.8405 180.203 14.5737C181.303 14.2833 182.436 14.1374 183.574 14.1397C185.301 14.1386 187.011 14.4855 188.602 15.1597C190.022 15.7258 191.26 16.6682 192.185 17.8854C192.231 17.9497 192.251 18.0291 192.241 18.1077C192.231 18.1862 192.191 18.258 192.131 18.3086L189.309 20.6957C189.276 20.7241 189.238 20.7453 189.196 20.758C189.154 20.7707 189.111 20.7747 189.067 20.7696C189.024 20.7645 188.982 20.7504 188.945 20.7284C188.907 20.7063 188.875 20.6767 188.849 20.6415C188.297 19.8629 187.576 19.219 186.74 18.7578C185.727 18.1864 184.58 17.8937 183.417 17.9092C182.868 17.9101 182.32 17.9705 181.783 18.0894C181.271 18.1958 180.78 18.3857 180.329 18.6514C179.919 18.8915 179.569 19.2227 179.307 19.6193C179.041 20.0571 178.908 20.5632 178.925 21.0755C178.908 21.5474 179.03 22.0139 179.274 22.4176C179.519 22.8214 179.877 23.1446 180.303 23.3476C181.222 23.8395 182.596 24.2902 184.427 24.6996C185.518 24.9531 186.593 25.2771 187.643 25.6697C188.566 26.0093 189.435 26.4823 190.221 27.0737C190.933 27.6119 191.517 28.3002 191.933 29.0898C192.363 29.9448 192.578 30.8914 192.56 31.8481ZM144.572 14.5889L144.396 18.3954C144.394 18.4401 144.383 18.484 144.363 18.524C144.343 18.564 144.314 18.5992 144.279 18.6272C144.244 18.6552 144.203 18.6753 144.16 18.6863C144.117 18.6972 144.071 18.6986 144.027 18.6905C143.42 18.5707 142.803 18.5118 142.185 18.5147C141.145 18.489 140.113 18.7076 139.173 19.1527C138.348 19.5571 137.624 20.1415 137.055 20.8628C136.481 21.5998 136.056 22.4406 135.802 23.3389C135.528 24.2934 135.391 25.282 135.394 26.2751V38.6775C135.394 38.7609 135.361 38.841 135.302 38.9C135.243 38.959 135.163 38.9922 135.08 38.9922H130.9C130.817 38.9922 130.737 38.959 130.678 38.9C130.618 38.841 130.585 38.7609 130.585 38.6775V20.0143C130.585 19.3676 130.568 18.5343 130.533 17.5143C130.505 16.6462 130.464 15.8498 130.41 15.1467C130.406 15.1035 130.411 15.06 130.425 15.0191C130.44 14.9781 130.462 14.9405 130.491 14.9087C130.521 14.8768 130.556 14.8514 130.596 14.8341C130.636 14.8168 130.679 14.808 130.722 14.8081H134.641C134.719 14.8077 134.794 14.8361 134.852 14.8879C134.909 14.9396 134.946 15.0109 134.954 15.0881C135.006 15.6328 135.047 16.2469 135.078 16.9262C135.11 17.7248 135.13 18.3802 135.13 18.8793H135.282C135.942 17.4757 136.98 16.2833 138.279 15.4353C139.586 14.5675 141.125 14.1138 142.695 14.1332C143.238 14.1253 143.782 14.1726 144.316 14.2743C144.389 14.2885 144.454 14.3277 144.501 14.3852C144.548 14.4427 144.573 14.5148 144.572 14.5889ZM98.5649 35.6632C98.6245 35.7183 98.6602 35.7943 98.6647 35.8753C98.6692 35.9563 98.6419 36.0359 98.5888 36.0972C97.578 37.1962 96.3428 38.0651 94.9668 38.6449C93.318 39.3324 91.5447 39.6716 89.7585 39.641C87.9891 39.6596 86.2316 39.3483 84.5762 38.723C83.0494 38.1447 81.6529 37.2683 80.4681 36.1449C79.2919 35.0163 78.3605 33.6579 77.7316 32.154C77.0477 30.4866 76.7089 28.6978 76.7355 26.8958C76.7124 25.1127 77.0421 23.3427 77.7056 21.6875C78.3202 20.1714 79.2415 18.7986 80.4117 17.6553C81.5905 16.5169 82.9891 15.6308 84.522 15.0512C86.1602 14.4292 87.8999 14.1179 89.6522 14.1332C91.3956 14.142 93.1208 14.4883 94.7325 15.1532C96.2126 15.7221 97.5244 16.6569 98.5454 17.8702C98.5949 17.9349 98.6174 18.0163 98.6081 18.0973C98.5987 18.1782 98.5584 18.2524 98.4955 18.3042L95.5267 20.7109C95.4946 20.7376 95.4574 20.7576 95.4173 20.7696C95.3773 20.7816 95.3352 20.7854 95.2937 20.7807C95.2521 20.7761 95.2119 20.7631 95.1755 20.7425C95.1391 20.7219 95.1073 20.6942 95.0819 20.661C94.5148 19.941 93.7922 19.3586 92.9682 18.9574C91.9589 18.4328 90.8374 18.161 89.6999 18.1653C88.5458 18.1427 87.402 18.3871 86.3579 18.8793C85.4087 19.3396 84.5655 19.9922 83.8818 20.7955C83.1894 21.6149 82.6605 22.5593 82.3236 23.5777C81.6089 25.732 81.6089 28.0596 82.3236 30.2139C82.6605 31.2323 83.1894 32.1767 83.8818 32.9961C84.5702 33.8039 85.4223 34.4563 86.3818 34.9101C87.438 35.3823 88.582 35.6263 89.739 35.6263C90.896 35.6263 92.0399 35.3823 93.0962 34.9101C93.9643 34.5083 94.739 33.9295 95.3705 33.2109C95.4262 33.152 95.5026 33.117 95.5836 33.1134C95.6645 33.1097 95.7438 33.1377 95.8045 33.1914L98.5649 35.6632ZM122.508 17.6966C121.307 16.5569 119.893 15.664 118.348 15.0685C115.026 13.8098 111.358 13.8098 108.035 15.0685C106.496 15.6602 105.09 16.5537 103.901 17.6966C102.732 18.837 101.803 20.1998 101.169 21.7048C100.491 23.3291 100.153 25.075 100.175 26.835C100.154 28.6033 100.492 30.3575 101.169 31.9913C101.802 33.5123 102.731 34.8924 103.901 36.0516C105.084 37.2085 106.491 38.1117 108.035 38.7057C111.358 39.9645 115.026 39.9645 118.348 38.7057C119.898 38.1076 121.312 37.2052 122.508 36.0516C123.687 34.8994 124.623 33.5214 125.258 32C125.935 30.3662 126.273 28.612 126.252 26.8437C126.274 25.0837 125.936 23.3378 125.258 21.7135C124.618 20.2036 123.677 18.8398 122.493 17.7052L122.508 17.6966ZM120.7 30.1792C120.359 31.2011 119.829 32.1505 119.14 32.9787C118.446 33.8005 117.58 34.4604 116.603 34.9123C115.511 35.3833 114.335 35.6263 113.146 35.6263C111.957 35.6263 110.781 35.3833 109.689 34.9123C108.713 34.4602 107.848 33.8002 107.154 32.9787C106.465 32.1505 105.936 31.2011 105.594 30.1792C104.876 28.0312 104.876 25.7083 105.594 23.5603C105.933 22.5449 106.462 21.6035 107.154 20.7869C107.854 19.978 108.718 19.3277 109.689 18.8793C110.781 18.4083 111.957 18.1653 113.146 18.1653C114.335 18.1653 115.511 18.4083 116.603 18.8793C117.575 19.3276 118.44 19.9779 119.14 20.7869C119.832 21.6035 120.362 22.5449 120.7 23.5603C121.418 25.7083 121.418 28.0312 120.7 30.1792Z" fill="#191919"/>
</svg>
