<?xml version="1.0" encoding="UTF-8"?> <svg xmlns="http://www.w3.org/2000/svg" width="229" height="43" viewBox="0 0 229 43" fill="none"><g clip-path="url(#clip0)"><path d="M12.5354 33.0813C8.39583 33.0813 5.53891 29.6986 5.53891 25.628V25.5706C5.53891 21.5 8.45413 18.1746 12.5354 18.1746C14.9259 18.1746 16.85 19.2066 18.7157 20.8693L22.0974 17.028C19.8818 14.8493 17.1415 13.3586 12.5937 13.3586C5.18909 13.416 0 18.92 0 25.628V25.6853C0 32.508 5.24739 37.84 12.3605 37.84C17.0249 37.84 19.7652 36.2346 22.214 33.5973L18.8323 30.272C16.9666 31.992 15.2757 33.0813 12.5354 33.0813Z" fill="#6CBE45"></path><path d="M30.3768 22.9906V19.3213H25.1294V37.4386H30.3768V30.7879C30.3768 26.4306 32.534 24.3666 35.974 24.3666H36.2655V18.9773C33.1754 18.8626 31.4263 20.5253 30.3768 22.9906Z" fill="#6CBE45"></path><path d="M46.7019 19.0347C41.3379 19.0347 37.6064 23.2773 37.6064 28.4947V28.552C37.6064 34.1133 41.6877 37.8973 47.2267 37.8973C50.55 37.8973 53.0571 36.636 54.7479 34.5147L51.7744 31.9347C50.3168 33.2533 49.0341 33.7693 47.285 33.7693C44.9528 33.7693 43.3203 32.5653 42.7955 30.2147H55.6225C55.6808 29.756 55.6808 29.24 55.6808 28.8387C55.6808 23.736 52.8239 19.0347 46.7019 19.0347ZM42.6789 27.004C43.0871 24.6533 44.4864 23.1627 46.6436 23.1627C48.8592 23.1627 50.2002 24.7107 50.55 27.004H42.6789Z" fill="#6CBE45"></path><path d="M72.3559 21.7294C71.1316 20.2961 69.3824 19.0347 66.5838 19.0347C62.211 19.0347 58.188 22.3601 58.188 28.3801V28.4374C58.188 34.5147 62.2693 37.7827 66.5838 37.7827C69.3241 37.7827 71.0732 36.5214 72.3559 34.8587V37.4387H77.6033V12.7854H72.3559V21.7294ZM72.4142 28.4374C72.4142 31.4761 70.3736 33.4254 67.9248 33.4254C65.476 33.4254 63.4354 31.4187 63.4354 28.4374V28.3801C63.4354 25.3414 65.476 23.3921 67.9248 23.3921C70.3736 23.3921 72.4142 25.3987 72.4142 28.3801V28.4374Z" fill="#6CBE45"></path><path d="M87.1652 12.7854H81.6846V17.3721H87.1652V12.7854Z" fill="#6CBE45"></path><path d="M87.0482 19.3787H81.8008V37.496H87.0482V19.3787Z" fill="#6CBE45"></path><path d="M97.9513 14.7349H92.7039V19.3789H90.4883V23.7935H92.7039V32.3935C92.7039 36.5789 94.8611 37.8402 98.0679 37.8402C99.817 37.8402 101.1 37.4389 102.207 36.8082V32.6802C101.45 33.0815 100.575 33.3109 99.6421 33.3109C98.476 33.3109 97.9513 32.7375 97.9513 31.5335V23.7362H102.266V19.3215H97.9513V14.7349Z" fill="#6CBE45"></path><path d="M117.133 23.3348C112.994 22.3028 111.944 21.7868 111.944 20.2388V20.1814C111.944 19.0348 112.994 18.1174 115.034 18.1174C117.075 18.1174 119.174 18.9774 121.273 20.4681L124.013 16.5694C121.565 14.6201 118.591 13.5308 115.093 13.5308C110.195 13.5308 106.639 16.3974 106.639 20.6401V20.6974C106.639 25.3988 109.787 26.7174 114.626 27.9214C118.649 28.9534 119.466 29.6414 119.466 30.9601V31.0174C119.466 32.3934 118.183 33.2534 115.967 33.2534C113.227 33.2534 110.953 32.1641 108.796 30.3868L105.647 34.0561C108.563 36.5788 112.236 37.8401 115.851 37.8401C121.04 37.8401 124.713 35.2028 124.713 30.5014V30.4441C124.771 26.3161 121.973 24.5961 117.133 23.3348Z" fill="#3084C6"></path><path d="M134.508 14.7346H129.261V19.3786H127.104V23.7933H129.319V32.3933C129.319 36.5786 131.476 37.84 134.683 37.84C136.432 37.84 137.715 37.4386 138.823 36.8079V32.68C138.065 33.0813 137.19 33.3106 136.257 33.3106C135.091 33.3106 134.566 32.7373 134.566 31.5333V23.736H138.881V19.3213H134.566V14.7346H134.508Z" fill="#3084C6"></path><path d="M148.385 22.9908V19.3215H143.137V37.4388H148.385V30.7882C148.385 26.4308 150.542 24.3668 153.982 24.3668H154.273V18.9775C151.183 18.8628 149.434 20.5255 148.385 22.9908Z" fill="#3084C6"></path><path d="M170.657 28.4373V28.4946C170.657 31.1893 168.85 33.4253 165.876 33.4253C162.961 33.4253 161.037 31.0746 161.037 28.4373V28.38C161.037 25.8573 162.611 23.6786 165.351 23.4493C166.284 22.36 167.509 20.9266 168.85 19.3786C167.917 19.1493 166.925 18.9773 165.876 18.9773C160.104 18.9773 155.848 23.22 155.848 28.4373V28.4946C155.848 33.712 160.104 37.84 165.818 37.84C171.532 37.84 175.846 33.5973 175.846 28.38V28.3226C175.846 26.2586 175.205 24.424 174.039 22.876C172.698 25.0546 171.473 27.004 170.657 28.2653C170.657 28.38 170.657 28.4373 170.657 28.4373Z" fill="#3084C6"></path><path d="M189.431 19.0347C186.807 19.0347 185.233 20.4107 184.009 21.9587V19.3787H178.761V37.496H184.009V27.4053C184.009 24.94 185.291 23.736 187.274 23.736C189.256 23.736 190.422 24.9973 190.422 27.4053V37.496H195.669V25.7427C195.669 21.6147 193.396 19.0347 189.431 19.0347Z" fill="#3084C6"></path><path d="M212.811 19.3787V21.7293C211.412 20.1813 209.721 19.0347 206.864 19.0347C202.608 19.0347 198.701 22.0733 198.701 27.52C198.701 32.9093 202.608 36.0053 206.864 36.0053C209.662 36.0053 211.353 34.916 212.869 33.0813V33.9413C212.869 37.2093 211.178 38.872 207.622 38.872C205.173 38.872 203.307 38.2413 201.383 37.2093L199.576 41.0507C201.908 42.2547 204.707 42.9427 207.738 42.9427C211.295 42.9427 213.977 42.1973 215.668 40.5347C217.242 38.9867 218 36.636 218 33.4253V19.3787H212.811ZM212.869 27.52C212.869 29.9853 210.887 31.7053 208.38 31.7053C205.814 31.7053 203.89 29.9853 203.89 27.52V27.4627C203.89 24.9973 205.814 23.2773 208.38 23.2773C210.945 23.2773 212.869 24.9973 212.869 27.4627V27.52Z" fill="#3084C6"></path><path d="M180.977 7.10933C181.268 7.10933 181.502 7.16667 181.677 7.33867C182.609 8.02667 182.201 9.05867 180.627 11.868C182.026 13.244 183.134 14.8493 183.892 16.6267H191.821C189.198 6.99467 180.219 0 168.733 0C157.247 0 148.268 7.052 145.528 16.6267H153.457C155.848 11.0653 161.562 7.10933 168.675 7.10933C172.056 7.10933 175.146 8.02667 177.654 9.51733C180.161 7.10933 180.569 7.10933 180.977 7.10933Z" fill="#6CBE45"></path><path d="M181.035 8.19873C180.977 8.19873 180.918 8.19873 180.86 8.25606C180.86 8.25606 180.802 8.25606 180.802 8.3134C180.744 8.3134 180.743 8.37073 180.685 8.37073C180.627 8.37073 180.627 8.42806 180.569 8.42806C180.51 8.4854 180.452 8.4854 180.394 8.54273C180.335 8.60006 180.277 8.60006 180.277 8.6574C180.219 8.71473 180.16 8.77206 180.102 8.77206C180.044 8.8294 179.986 8.88673 179.927 8.94406C179.869 9.0014 179.811 9.05873 179.752 9.05873C179.461 9.3454 179.111 9.6894 178.761 10.0334L178.703 10.0907C178.586 10.2054 178.47 10.3201 178.353 10.4347C178.295 10.4921 178.236 10.5494 178.178 10.6067C178.062 10.7214 177.945 10.8361 177.828 10.9507C177.77 11.0081 177.712 11.0654 177.712 11.1227C177.304 11.5814 176.837 12.0401 176.429 12.4987C176.371 12.5561 176.371 12.6134 176.312 12.6134C176.196 12.7854 176.021 12.9001 175.904 13.0721C175.846 13.1294 175.788 13.1867 175.729 13.2441C175.613 13.4161 175.438 13.5307 175.321 13.7027C175.263 13.7601 175.205 13.8174 175.146 13.8747C174.68 14.3907 174.213 14.9067 173.747 15.4801C173.689 15.5374 173.63 15.6521 173.572 15.7094C173.455 15.8814 173.281 15.9961 173.164 16.1681C173.106 16.2827 172.989 16.3401 172.931 16.4547C172.814 16.6267 172.639 16.7414 172.523 16.9134C172.464 16.9707 172.406 17.0854 172.348 17.1427C172.114 17.4294 171.881 17.6587 171.648 17.9454C171.531 18.0601 171.415 18.1747 171.298 18.3467C171.182 18.4614 171.065 18.5761 171.007 18.6907C170.89 18.8054 170.773 18.9201 170.715 19.0347C170.599 19.1494 170.482 19.2641 170.424 19.3787C170.307 19.4934 170.249 19.6081 170.132 19.7227C170.074 19.7801 170.074 19.7801 170.015 19.8374C169.957 19.8947 169.899 20.0094 169.782 20.0667C169.607 20.2961 169.374 20.5254 169.199 20.7547C169.141 20.8121 169.083 20.8694 169.024 20.9841C168.908 21.1561 168.733 21.3281 168.616 21.4427C168.558 21.5001 168.441 21.6147 168.383 21.6721C168.266 21.8441 168.091 21.9587 167.975 22.1307C167.917 22.1881 167.858 22.2454 167.858 22.3027C167.683 22.4747 167.508 22.6467 167.392 22.8761L167.333 22.9334C167.159 23.1054 167.042 23.2774 166.867 23.4494L166.809 23.5067L166.75 23.5641C166.634 23.7361 166.459 23.9081 166.342 24.0227L166.284 24.0801C166.167 24.2521 166.051 24.3667 165.934 24.4814L165.876 24.5387C165.643 24.8254 165.409 25.1121 165.235 25.3414C165.235 25.3414 165.235 25.3414 165.176 25.3987C165.118 25.5134 165.06 25.5707 165.001 25.6281L164.943 25.6854C164.885 25.7427 164.885 25.8001 164.826 25.8574C164.826 25.8574 164.826 25.9147 164.768 25.9147C164.71 25.9721 164.71 26.0294 164.651 26.0294C163.369 27.7494 162.786 29.4121 164.535 30.6734C165.06 31.0174 165.526 31.1894 165.934 31.1894C166.984 31.1894 167.917 30.2721 168.849 29.0107C168.849 29.0107 168.908 28.9534 168.966 28.8961C168.966 28.8961 168.966 28.8387 169.024 28.8387C169.083 28.7814 169.083 28.7241 169.141 28.6667L169.199 28.6094C169.258 28.5521 169.316 28.4374 169.374 28.3227C169.432 28.2081 169.549 28.0361 169.666 27.9214C169.782 27.7494 169.841 27.6347 169.957 27.4627L170.015 27.4054C170.132 27.2334 170.249 27.0614 170.365 26.8894C170.424 26.8321 170.482 26.7174 170.54 26.6027C170.773 26.2587 170.948 25.9147 171.182 25.5707C171.182 25.5134 171.24 25.5134 171.24 25.4561C171.356 25.2841 171.473 25.0547 171.59 24.8827C171.648 24.8254 171.648 24.7681 171.706 24.7107C171.998 24.1947 172.348 23.6787 172.697 23.1627C172.756 23.1054 172.756 23.0481 172.814 22.9907C172.931 22.7614 173.047 22.5894 173.222 22.3601C173.281 22.2454 173.339 22.1881 173.397 22.0734C173.397 22.0161 173.455 22.0161 173.455 21.9587C173.572 21.7867 173.63 21.6721 173.747 21.5001C173.805 21.3854 173.864 21.3281 173.922 21.2134C174.097 20.9841 174.213 20.6974 174.388 20.4681C174.447 20.3534 174.563 20.2387 174.622 20.1241C174.738 19.9521 174.796 19.7801 174.913 19.6654C174.971 19.5507 175.088 19.3787 175.146 19.2641C175.263 19.1494 175.321 18.9774 175.379 18.8627C175.438 18.7481 175.554 18.5761 175.613 18.4614C175.729 18.2894 175.846 18.1174 175.904 17.9454C176.021 17.7734 176.079 17.6014 176.196 17.4294C176.312 17.2574 176.429 17.0281 176.546 16.8561C176.662 16.6841 176.72 16.5694 176.837 16.3974C176.895 16.2827 177.012 16.1681 177.07 16.0534C177.187 15.8814 177.245 15.7667 177.362 15.5947C177.42 15.4801 177.478 15.3654 177.537 15.2507C177.653 15.0787 177.712 14.9641 177.828 14.7921C177.887 14.6774 177.945 14.6201 178.003 14.5054C178.178 14.2187 178.295 13.9321 178.47 13.7027C178.528 13.5881 178.586 13.4734 178.645 13.3587C178.703 13.2441 178.819 13.0721 178.878 12.9574C178.936 12.8427 178.994 12.7281 179.053 12.6707C179.111 12.5561 179.228 12.3841 179.286 12.2694C179.344 12.1547 179.402 12.0401 179.461 11.9827C179.577 11.8107 179.694 11.5814 179.752 11.4094C179.811 11.2947 179.869 11.2374 179.927 11.1227C179.927 11.1227 179.927 11.1227 179.927 11.0654C179.986 10.9507 180.044 10.7787 180.16 10.6641C180.219 10.6067 180.219 10.5494 180.277 10.4347C180.335 10.3201 180.394 10.2054 180.452 10.0907C180.51 10.0334 180.51 9.97606 180.569 9.91873C180.627 9.80406 180.685 9.6894 180.744 9.63206C180.802 9.57473 180.802 9.5174 180.86 9.46006C180.918 9.40273 180.918 9.28806 180.977 9.23073C180.977 9.1734 181.035 9.11606 181.035 9.05873C181.035 9.0014 181.093 8.94406 181.093 8.88673C181.093 8.8294 181.152 8.77206 181.152 8.71473C181.152 8.6574 181.21 8.60006 181.21 8.60006C181.21 8.54273 181.21 8.4854 181.21 8.4854V8.42806C181.093 8.25606 181.035 8.19873 181.035 8.19873Z" fill="#3084C6"></path><path d="M225.003 23C224.569 23 224.148 22.9327 223.74 22.798C223.334 22.6598 222.967 22.4667 222.636 22.2186C222.309 21.9705 222.022 21.6835 221.773 21.3575C221.528 21.0279 221.338 20.6594 221.203 20.2518C221.068 19.8443 221 19.4244 221 18.992C221 18.4534 221.105 17.9378 221.314 17.4452C221.528 16.9526 221.812 16.5274 222.167 16.1694C222.526 15.8115 222.952 15.528 223.446 15.3189C223.944 15.1063 224.463 15 225.003 15C225.543 15 226.06 15.1063 226.554 15.3189C227.048 15.528 227.472 15.8115 227.827 16.1694C228.186 16.5274 228.471 16.9526 228.68 17.4452C228.893 17.9378 229 18.4534 229 18.992C229 19.5307 228.893 20.0481 228.68 20.5442C228.471 21.0403 228.186 21.4673 227.827 21.8252C227.472 22.1832 227.048 22.4684 226.554 22.6811C226.06 22.8937 225.543 23 225.003 23ZM224.992 22.3887C225.592 22.3887 226.145 22.2363 226.65 21.9316C227.158 21.6233 227.557 21.2104 227.849 20.693C228.14 20.1756 228.286 19.614 228.286 19.008C228.286 18.4055 228.14 17.8474 227.849 17.3336C227.557 16.8162 227.158 16.4069 226.65 16.1056C226.145 15.8009 225.592 15.6485 224.992 15.6485C224.392 15.6485 223.837 15.8009 223.329 16.1056C222.825 16.4069 222.427 16.8162 222.135 17.3336C221.844 17.8474 221.698 18.4055 221.698 19.008C221.698 19.614 221.844 20.1756 222.135 20.693C222.427 21.2104 222.825 21.6233 223.329 21.9316C223.837 22.2363 224.392 22.3887 224.992 22.3887ZM224.352 18.6944H224.832C225.18 18.6944 225.44 18.6554 225.61 18.5774C225.781 18.4959 225.866 18.3453 225.866 18.1256C225.866 17.8704 225.809 17.711 225.696 17.6472C225.582 17.5834 225.326 17.5515 224.928 17.5515H224.352V18.6944ZM223.201 21.3415V16.6585H224.896C225.624 16.6585 226.157 16.7772 226.495 17.0146C226.836 17.2485 227.007 17.5976 227.007 18.0618C227.007 18.7493 226.692 19.1781 226.063 19.3482L227.065 21.3415H225.813L225.003 19.5342H224.347V21.3415H223.201Z" fill="#3084C6"></path></g><defs><clipPath id="clip0"><rect width="229" height="43" fill="white"></rect></clipPath></defs></svg> 