<svg width="163" height="32" viewBox="0 0 163 32" fill="none" xmlns="http://www.w3.org/2000/svg">
<path d="M54.0408 30.0949C53.9166 29.8421 53.9373 29.5684 54.1029 29.2525L64.4129 3.05409C64.5371 2.80138 64.6821 2.59078 64.827 2.44336C64.9719 2.29594 65.1789 2.19064 65.4067 2.12746C66.0692 2.0011 66.7317 1.93792 67.3941 1.93792C68.0566 1.93792 68.7191 2.0011 69.3816 2.12746C69.8164 2.23276 70.1269 2.54866 70.2926 3.05409L80.6854 29.2525C80.8096 29.5684 80.8303 29.8421 80.7268 30.0949C80.6233 30.3476 80.4163 30.495 80.085 30.5371C79.5053 30.6424 78.9049 30.6845 78.3253 30.6635C77.7249 30.6424 77.1452 30.5792 76.5655 30.4739C76.1308 30.3686 75.8202 30.0527 75.6132 29.5473L65.9656 5.34961H68.7398L59.1544 29.5473C59.0716 29.8 58.9681 30.0106 58.8232 30.158C58.6782 30.3055 58.4919 30.4107 58.2435 30.4739C57.6638 30.5792 57.0634 30.6424 56.463 30.6635C55.8626 30.6845 55.2623 30.6424 54.6826 30.5371C54.372 30.4739 54.1443 30.3265 54.0408 30.0949ZM63.0051 24.8088C61.5352 24.5561 60.086 24.156 58.6782 23.6506L60.3552 19.3965C61.5145 19.8177 62.6739 20.1125 63.8333 20.3231C64.9926 20.5337 66.1727 20.639 67.3941 20.639C68.6156 20.639 69.7957 20.5337 70.955 20.3231C72.1144 20.1125 73.2738 19.8177 74.4331 19.3965L76.1929 23.6506C74.8058 24.1771 73.3566 24.5561 71.866 24.8088C70.3754 25.0616 68.8847 25.1879 67.4148 25.1879C65.9242 25.1879 64.475 25.0616 63.0051 24.8088ZM83.6666 29.3788V1.28507C83.6666 0.632218 83.9357 0.274202 84.474 0.168903C85.033 0.0636039 85.592 0.0214844 86.1716 0.0214844C86.7513 0.0214844 87.3103 0.0636039 87.8693 0.168903C88.3455 0.274202 88.5939 0.653278 88.5939 1.28507V29.3788C88.5939 29.9896 88.3455 30.3686 87.8693 30.495C87.331 30.6003 86.772 30.6424 86.1924 30.6424C85.6127 30.6424 85.033 30.6003 84.474 30.495C83.915 30.3897 83.6666 30.0106 83.6666 29.3788ZM93.1278 29.3788V1.28507C93.1278 0.632218 93.397 0.274202 93.9352 0.168903C94.5149 0.0636039 95.0946 0.0214844 95.6536 0.0214844C96.2126 0.0214844 96.7715 0.0636039 97.3305 0.168903C97.8067 0.274202 98.0551 0.653278 98.0551 1.28507V29.3788C98.0551 29.9896 97.8067 30.3686 97.3305 30.495C96.7922 30.6003 96.254 30.6424 95.6743 30.6424C95.0946 30.6424 94.5356 30.6003 93.9352 30.495C93.397 30.3897 93.1278 30.0106 93.1278 29.3788ZM100.374 29.7368C99.0488 28.8944 97.993 27.694 97.2063 26.1146C96.4403 24.5351 96.0469 22.6818 96.0469 20.5337C96.0469 18.3856 96.4403 16.5324 97.2063 14.9529C97.9723 13.3734 99.0281 12.173 100.374 11.3306C101.699 10.4882 103.21 10.067 104.887 10.067C106.564 10.067 108.055 10.4882 109.4 11.3306C110.725 12.173 111.781 13.3734 112.568 14.9529C113.334 16.5324 113.727 18.3856 113.727 20.5337C113.727 22.6818 113.334 24.5351 112.568 26.1146C111.802 27.694 110.746 28.8944 109.4 29.7368C108.075 30.5792 106.564 31.0004 104.887 31.0004C103.21 31.0004 101.72 30.5792 100.374 29.7368ZM107.454 25.0405C108.344 23.819 108.8 22.3238 108.8 20.5548C108.8 18.7858 108.344 17.2694 107.454 16.069C106.543 14.8476 105.218 14.2579 103.438 14.2579C102.278 14.2579 101.285 14.5527 100.477 15.1213C99.6699 15.711 99.0488 16.4692 98.6555 17.4379C98.2414 18.4067 98.0551 19.4386 98.0551 20.5548C98.0551 21.6709 98.2621 22.7029 98.6555 23.6716C99.0695 24.6404 99.6699 25.4196 100.477 25.9882C101.285 26.5779 102.278 26.8516 103.438 26.8516C105.218 26.8516 106.564 26.262 107.454 25.0405ZM121.015 29.7368C119.483 28.8944 118.303 27.694 117.433 26.1146C116.563 24.5351 116.149 22.6818 116.149 20.5337C116.149 18.3856 116.563 16.5324 117.412 14.9529C118.24 13.3734 119.4 12.173 120.849 11.3306C122.298 10.4882 123.934 10.067 125.735 10.067C127.64 10.067 129.337 10.4882 130.828 11.3306C132.318 12.173 133.498 13.3734 134.347 14.9529C135.196 16.5324 135.631 18.3856 135.631 20.5337C135.631 20.976 135.527 21.355 135.32 21.6499C135.113 21.9658 134.844 22.1553 134.492 22.2396H119.193V18.7226H132.546L130.641 20.5337C130.641 18.7436 130.227 17.2484 129.42 16.048C128.613 14.8265 127.37 14.2368 125.735 14.2368C124.203 14.2368 123.064 14.8476 122.277 16.069C121.491 17.2905 121.097 18.7858 121.097 20.5337C121.097 22.3238 121.511 23.819 122.34 25.0194C123.168 26.2409 124.431 26.8306 126.128 26.8306C126.998 26.8306 127.722 26.7253 128.364 26.5147C128.985 26.3041 129.565 26.0093 130.124 25.5881C130.352 25.3985 130.579 25.2932 130.786 25.23C130.993 25.1879 131.221 25.23 131.407 25.3775C131.614 25.5249 131.801 25.6934 131.966 25.8618C132.132 26.0303 132.298 26.1988 132.484 26.3883C132.67 26.5779 132.815 26.7674 132.96 26.978C133.105 27.1886 133.229 27.3992 133.312 27.6309C133.519 28.0942 133.457 28.4732 133.126 28.747C132.298 29.442 131.304 29.9896 130.165 30.3686C129.027 30.7477 127.722 30.9583 126.294 30.9583C124.286 31.0004 122.547 30.5792 121.015 29.7368ZM138.136 29.3788V11.7307C138.136 11.0779 138.405 10.7199 138.943 10.6146C139.523 10.5093 140.103 10.4671 140.662 10.4671C141.221 10.4671 141.78 10.5093 142.339 10.6146C142.815 10.7199 143.063 11.0989 143.063 11.7307V29.3788C143.063 30.0317 142.815 30.3897 142.339 30.495C141.78 30.5792 141.221 30.6213 140.662 30.6213C140.103 30.6213 139.523 30.5792 138.943 30.495C138.405 30.3686 138.136 29.9896 138.136 29.3788ZM147.99 10.1091C148.736 10.1091 149.357 10.2355 149.895 10.4882C150.268 10.6356 150.516 10.9726 150.62 11.4991C150.64 11.7307 150.64 11.9834 150.62 12.2362C150.599 12.4889 150.578 12.7627 150.537 13.0154C150.516 13.2891 150.475 13.5629 150.413 13.8367C150.351 14.0894 150.288 14.3421 150.247 14.5738C150.144 14.8476 149.978 15.0371 149.771 15.1213C149.564 15.2056 149.295 15.1845 148.984 15.0792C148.322 14.8897 147.701 14.8055 147.08 14.8055C145.982 14.8055 145.051 15.2056 144.243 16.0269C143.436 16.8483 143.042 18.2382 143.042 20.2178H142.214C142.214 13.4787 144.14 10.1091 147.99 10.1091ZM154.118 29.6105C153.104 28.726 152.586 27.2939 152.586 25.3143V6.55002C152.586 6.02352 152.773 5.64445 153.166 5.34961C153.746 4.88629 154.305 4.54934 154.802 4.33874C155.05 4.19132 155.34 4.0439 155.63 3.9386C155.94 3.81225 156.23 3.72801 156.499 3.64377C156.831 3.53847 157.079 3.58059 157.265 3.77013C157.452 3.95966 157.534 4.21238 157.534 4.48616V24.9563C157.534 26.2199 158.197 26.8516 159.543 26.8516C160.205 26.8516 160.93 26.7674 161.716 26.5779C162.048 26.4936 162.317 26.5147 162.524 26.62C162.731 26.7253 162.876 26.8938 162.938 27.1675C162.979 27.5887 163 28.0099 163 28.4311C162.979 28.8523 162.938 29.2735 162.876 29.6947C162.752 30.1159 162.482 30.3897 162.068 30.5371C161.53 30.7266 160.95 30.853 160.309 30.9162C159.667 31.0004 159.046 31.0215 158.445 31.0004C156.582 30.9583 155.133 30.4739 154.118 29.6105ZM155.858 10.8462H161.447C162.006 10.8462 162.338 11.12 162.482 11.6675C162.586 12.1309 162.627 12.5942 162.627 13.0364C162.627 13.4787 162.586 13.942 162.482 14.3632C162.379 14.8897 162.048 15.1424 161.447 15.1424H155.858V10.8462Z" fill="#333333"/>
<path d="M37.8094 29.779C37.4161 29.779 37.0434 29.6737 36.7122 29.4421L22.4272 19.6493L24.6217 16.3218L36.2567 24.3035C36.8364 18.6805 36.8157 12.9944 36.1946 7.37141L3.81531 22.9346L2.11768 19.3123L36.9606 2.56978C37.5196 2.296 38.1821 2.31706 38.7411 2.6119C39.3 2.9278 39.6727 3.47535 39.7555 4.10715L39.9004 5.20225C40.8942 12.8048 40.8321 20.4917 39.7555 28.0732C39.652 28.7471 39.2172 29.3368 38.5961 29.6105C38.3477 29.7369 38.0786 29.779 37.8094 29.779Z" fill="#333333"/>
<path d="M3.79488 29.7794C3.46363 29.7794 3.15309 29.6952 2.86325 29.5267C2.30427 29.2108 1.93162 28.6633 1.8488 28.0315L1.70388 26.9574C0.710147 19.3548 0.772255 11.668 1.8488 4.0865C1.95232 3.41258 2.38708 2.82291 3.00817 2.54913C3.62925 2.27535 4.33315 2.33853 4.91283 2.71761L19.1978 12.5104L16.9826 15.8379L5.34759 7.8562C4.76791 13.4792 4.78861 19.1653 5.4097 24.7883L37.789 9.22508L39.4659 12.8474L4.64369 29.5899C4.37456 29.7163 4.08472 29.7794 3.79488 29.7794Z" fill="#333333"/>
</svg>
