<svg xmlns="http://www.w3.org/2000/svg" xmlns:xlink="http://www.w3.org/1999/xlink" viewBox="0 0 470.2461 63.041"><defs><style>.a{fill:url(#a);}.b{fill:url(#b);}.c{fill:url(#c);}.d{fill:url(#d);}.e{fill:url(#e);}.f{fill:url(#f);}.g{fill:url(#g);}.h{fill:url(#h);}.i{fill:#032359;}.j{fill:url(#i);}</style><linearGradient id="a" x1="16.4441" y1="58.3537" x2="16.4441" y2="12.6752" gradientUnits="userSpaceOnUse"><stop offset="0" stop-color="#095587"/><stop offset="0.328" stop-color="#074d7d"/><stop offset="1" stop-color="#023562"/></linearGradient><linearGradient id="b" x1="50.2876" y1="58.3537" x2="50.2876" y2="12.675" xlink:href="#a"/><linearGradient id="c" x1="82.8929" y1="58.3536" x2="82.8929" y2="12.6752" xlink:href="#a"/><linearGradient id="d" x1="123.4408" y1="58.3536" x2="123.4408" y2="12.6752" xlink:href="#a"/><linearGradient id="e" x1="166.2007" y1="62.0001" x2="166.2007" y2="11.8399" gradientUnits="userSpaceOnUse"><stop offset="0" stop-color="#23c9e0"/><stop offset="0.2253" stop-color="#21bbd7"/><stop offset="0.6479" stop-color="#1a97be"/><stop offset="1" stop-color="#1474a6"/></linearGradient><linearGradient id="f" x1="204.0537" y1="62.0001" x2="204.0537" y2="11.8398" xlink:href="#e"/><linearGradient id="g" x1="278.9289" y1="62" x2="278.9289" y2="11.8398" xlink:href="#e"/><linearGradient id="h" x1="306.1281" y1="62.0001" x2="306.1281" y2="11.8398" xlink:href="#e"/><linearGradient id="i" x1="240.7155" y1="63.041" x2="240.7155" y2="16.2881" xlink:href="#a"/></defs><path class="a" d="M0,0H32.8881V10.6H12.2135V23.6585H31.5309V34.1727H12.2135v22.98H0Z"/><path class="b" d="M38.4736,29.3394c0-6.1052-.16-10.0911-.3192-13.6521H48.6112l.3989,7.6316h.3192c1.9957-6.02,6.7853-8.5644,10.5371-8.5644a11.7632,11.7632,0,0,1,2.5545.17V27.05a16.43,16.43,0,0,0-3.2727-.3391c-4.47,0-7.5035,2.5437-8.3019,6.5289a16.1035,16.1035,0,0,0-.2395,2.8834V57.1525H38.4736Z"/><path class="c" d="M75.9081,40.5325c.3995,5.3417,5.349,7.8859,11.0162,7.8859a32.55,32.55,0,0,0,10.7767-1.695l1.5967,8.733A36.5124,36.5124,0,0,1,85.1682,58c-13.2508,0-20.835-8.1393-20.835-21.1143,0-10.5138,6.1474-22.1312,19.7174-22.1312,12.6124,0,17.4021,10.43,17.4021,20.6906a32.5054,32.5054,0,0,1-.399,5.0874Zm14.2894-8.8182c0-3.1378-1.277-8.3954-6.865-8.3954-5.1089,0-7.1842,4.9179-7.504,8.3954Z"/><path class="d" d="M116.4576,40.5325c.3979,5.3417,5.3474,7.8859,11.0157,7.8859a32.5438,32.5438,0,0,0,10.776-1.695l1.5967,8.733A36.5057,36.5057,0,0,1,125.7171,58c-13.2518,0-20.8355-8.1393-20.8355-21.1143,0-10.5138,6.1473-22.1312,19.7169-22.1312,12.6124,0,17.4015,10.43,17.4015,20.6906a32.4133,32.4133,0,0,1-.3979,5.0874Zm14.2883-8.8182c0-3.1378-1.278-8.3954-6.865-8.3954-5.109,0-7.1848,4.9179-7.5035,8.3954Z"/><path class="e" d="M182.9146,44.252a12.9914,12.9914,0,0,1-4.9791,10.7343q-4.9789,3.9611-13.2338,3.961-9.9214,0-15.2149-2.1836V52.9883q5.8491,2.4784,14.9185,2.4795,6.6636,0,10.5688-3.0537a9.688,9.688,0,0,0,3.9053-8.0147,9.2493,9.2493,0,0,0-1.2954-5.09,11.8282,11.8282,0,0,0-4.22-3.6836,52.0493,52.0493,0,0,0-8.5884-3.5908q-8.2925-2.8506-11.457-6.1636a12.2454,12.2454,0,0,1-3.1651-8.8286A12.1348,12.1348,0,0,1,154.91,7.14q4.7556-3.8313,12.2343-3.831a35.8121,35.8121,0,0,1,14.3262,2.8872l-1.37,3.2578a33.4223,33.4223,0,0,0-12.8823-2.8135q-5.9971,0-9.5508,2.7764a9.0706,9.0706,0,0,0-3.5537,7.5518,9.8906,9.8906,0,0,0,1.0918,4.9233,10.0353,10.0353,0,0,0,3.5722,3.4614,48.9322,48.9322,0,0,0,8.5147,3.6836,45.9578,45.9578,0,0,1,9.5136,4.2383,13.5918,13.5918,0,0,1,4.6455,4.6641A12.7289,12.7289,0,0,1,182.9146,44.252Z"/><path class="f" d="M207.9775,58.9473q-8.6256,0-13.5117-5.4414T189.58,38.3281q0-9.9946,5.0713-15.5659t13.8823-5.5713a27.9156,27.9156,0,0,1,9.9946,1.814l-1,3.2573a29.3419,29.3419,0,0,0-9.0693-1.74q-7.4047,0-11.2168,4.5717t-3.813,13.16q0,8.1445,3.813,12.7539t10.6616,4.6084a26.1766,26.1766,0,0,0,10.18-1.9619V57.06A23.0749,23.0749,0,0,1,207.9775,58.9473Z"/><path class="g" d="M284.1113,17.1909a31.52,31.52,0,0,1,5.479.5181l-.7036,3.5171a21.4278,21.4278,0,0,0-5.2192-.6294,10.1361,10.1361,0,0,0-8.44,4.3681,17.8047,17.8047,0,0,0-3.2945,11.0313V58.207h-3.665V17.9683h3.1094l.3706,7.2553h.2587a17.06,17.06,0,0,1,5.294-6.2373A12.3958,12.3958,0,0,1,284.1113,17.1909Z"/><path class="h" d="M308.2939,58.9473q-8.7729,0-13.6787-5.4043-4.9042-5.4052-4.9048-15.1407,0-9.624,4.7388-15.4179a15.6388,15.6388,0,0,1,12.7715-5.7935,13.79,13.79,0,0,1,11.2168,4.9605q4.109,4.9614,4.1084,13.4746v2.9619H293.5605q.0741,8.291,3.8682,12.66t10.8652,4.3682a33.7549,33.7549,0,0,0,6.0528-.4814,36.789,36.789,0,0,0,6.6074-2.0723v3.3311a29.4979,29.4979,0,0,1-6.293,2.0175A34.8842,34.8842,0,0,1,308.2939,58.9473Zm-1.0732-38.4991a12.0567,12.0567,0,0,0-9.3291,3.8316q-3.517,3.8313-4.1089,11.05h24.8765q0-6.9961-3.0352-10.939A10.0146,10.0146,0,0,0,307.2207,20.4482Z"/><path class="i" d="M353.002,6.7144q-10.1793,0-16.0293,6.5156-5.8477,6.5155-5.8487,17.8423,0,11.5869,5.5156,17.9922T352.41,55.4678a42.7009,42.7009,0,0,0,12.5117-1.7393V57.06a40.8178,40.8178,0,0,1-13.4,1.8877q-11.4024,0-17.9541-7.3662T327.0146,30.998a32.2718,32.2718,0,0,1,3.129-14.5473,22.6319,22.6319,0,0,1,8.9951-9.7178A26.5744,26.5744,0,0,1,352.78,3.3091,32.74,32.74,0,0,1,366.958,6.2705L365.44,9.6763A27.4553,27.4553,0,0,0,353.002,6.7144Z"/><path class="i" d="M378.2139,58.207h-3.6651V.6064h3.6651Z"/><path class="i" d="M393.8359,58.207h-3.665V17.9683h3.665Z"/><path class="i" d="M421.86,58.9473q-8.625,0-13.5118-5.4414-4.8852-5.44-4.8857-15.1778,0-9.9946,5.0713-15.5659t13.8818-5.5713a27.9183,27.9183,0,0,1,9.9951,1.814l-1,3.2573a29.3419,29.3419,0,0,0-9.0693-1.74q-7.4033,0-11.2168,4.5717t-3.8125,13.16q0,8.1445,3.8125,12.7539t10.6621,4.6084a26.1706,26.1706,0,0,0,10.18-1.9619V57.06A23.07,23.07,0,0,1,421.86,58.9473Z"/><path class="i" d="M443.8887,40.5488l20.5459-22.58h4.4414L453.0322,35.1445,470.2461,58.207h-4.4053l-15.289-20.3222-6.5889,5.9961V58.207h-3.665V.6064h3.665V29.4805l-.2588,11.0683Z"/><circle class="i" cx="391.9639" cy="4.1655" r="2.9121"/><path class="j" d="M240.1558,44.2832l-6.439,7.6406L232.939,23.44l23.3828,18.0992-9.9907-.0928L258.73,58.2168c-1.01-3.123-1.5606-4.748-1.4468-4.875a22.2229,22.2229,0,1,0-16.5679,7.4375,39.8986,39.8986,0,0,0,4.53-.4756s2.3955,1.667,3.7886,2.7373Z"/></svg>