<svg width="75" height="24" fill="none" xmlns="http://www.w3.org/2000/svg"><path d="M3.794.738H0V23.58h3.794V.738Zm24.89 0h-3.76V23.58h3.76V.738ZM18.26 2.268C18.26 1.031 19.3 0 20.577 0a2.224 2.224 0 0 1 1.582.643c.425.419.672.99.69 1.593a2.333 2.333 0 0 1-.6 1.631 2.23 2.23 0 0 1-1.543.735h-.13a2.269 2.269 0 0 1-1.625-.67 2.375 2.375 0 0 1-.69-1.649v-.015Zm4.165 21.321h-3.767V6.421h3.759l.008 17.168Zm32.885-8.653c0 5.495-3.425 9.064-8.388 9.064-4.964 0-8.361-3.57-8.361-9.064 0-5.495 3.39-8.933 8.36-8.933 4.972 0 8.388 3.432 8.388 8.933Zm-3.893 0c0-3.231-1.377-5.906-4.331-5.906h-.301c-2.987 0-4.297 2.783-4.297 5.906 0 3.16 1.31 6.044 4.297 6.044h.301c2.988 0 4.331-2.747 4.331-6.044ZM71.99 3.735h2.922V.738h-4.155c-2.705 0-3.93 1.505-3.93 4.136v1.52h-5.915V5.172c0-.38.147-.746.41-1.015.262-.27.618-.422.99-.422h2.929V.738h-4.157c-2.705 0-3.929 1.505-3.929 4.136v18.708h3.757V9.402h5.916v14.18h3.756V9.402h4.327v-3h-4.327v-1.23c0-.38.147-.746.41-1.015.263-.27.619-.421.99-.422m-68.19 7.887 8.4 11.96h4.767l-8.632-11.96L16.536.738h-4.788L3.794 11.622Z" fill="#131413"/><path d="m28.683 14.601 6.314 8.99h4.447l-6.5-8.988 6.23-8.186h-4.509L28.683 14.6Z" fill="#131413"/></svg>